<svg width="100" height="85" viewBox="0 0 100 85" fill="none" xmlns="http://www.w3.org/2000/svg">
<path d="M24.1953 75.7784L21.0588 73.092C14.8974 67.3284 9.96585 59.0432 8.59736 50.5602C8.23671 48.3247 6.41993 46.5018 4.15551 46.4889L4.04471 46.4883C1.80786 46.4756 0.00112064 44.6589 0.000723533 42.422V42.422C0.000324183 40.1725 1.82611 38.3499 4.07563 38.3542L7.6514 38.3611C8.35459 38.3624 8.9024 37.8993 9.05946 37.2139V37.2139L9.65557 34.9377C13.4688 21.289 25.5358 10.4839 39.942 8.18986C43.5877 7.6092 47.3298 7.79727 51.012 7.79916L59.4532 7.8229C60.0247 7.85042 60.5654 7.93434 61.1294 7.99532L64.6072 8.44565C65.7989 8.6491 66.8997 9.26133 67.7992 8.56249L68.6889 7.86473C72.9949 4.53633 78.2849 1.81081 83.5505 0.239759C84.1047 0.0743971 84.5367 0.242182 84.5543 0.820292C84.5771 1.56786 84.5229 2.60369 84.5226 2.92993L84.5201 17.8209C84.5256 17.9734 84.5428 18.104 84.6408 18.2267L88.1577 22.3839C89.8092 24.5058 91.1998 26.8136 92.5383 29.1306L93.4028 30.6135C94.3832 32.2837 93.6857 31.8355 95.9912 31.8444V31.8444C98.1916 31.8501 99.9731 33.6343 99.9755 35.8347L99.9946 53.3053C99.9976 56.045 97.7844 58.2713 95.0447 58.2845V58.2845C93.5384 58.2918 92.2914 59.0873 91.6585 60.4542C91.6394 60.4952 91.6218 60.5325 91.6056 60.5652C87.196 69.4931 79.7326 76.8134 70.4598 80.9474C60.3759 85.4432 49.5716 86.1946 38.9786 83.2206C33.5341 81.6921 28.6466 79.2302 24.1953 75.7784ZM76.4079 12.2066C76.3872 12.2097 76.3677 12.2181 76.3513 12.2309L73.2983 14.6141C70.7355 16.6147 67.3772 17.1535 64.1886 16.5186C60.0519 15.6949 56.8075 15.7305 51.4624 15.7287L46.6182 15.7276C44.5955 15.7284 42.6935 15.739 40.6966 16.1057C25.9676 18.8098 15.1259 32.7359 16.3262 47.369C17.1763 57.7313 24.966 68.3998 34.5698 72.9582C52.4104 81.8718 74.6343 75.5091 83.971 57.765C84.6818 56.4144 85.551 54.6183 86.1984 52.9065C86.7197 51.5282 87.974 50.4886 89.447 50.4452V50.4452C91.1878 50.3939 92.5744 48.9716 92.5814 47.2301L92.6022 42.1008C92.6073 40.8509 91.5993 39.833 90.3494 39.8258V39.8258V39.8258C89.5209 39.8189 88.9288 39.2865 88.5673 38.541C88.0469 37.4675 87.3932 36.4219 86.8209 35.4085L84.8611 31.8949C83.2173 29.1435 80.5403 25.0824 78.2057 22.8091L77.3927 22.0701C76.5905 21.3637 76.7971 20.9217 76.7207 19.9264C76.5897 18.2259 76.6193 16.5293 76.6135 14.8243C76.6106 14.0189 76.6904 13.0991 76.5421 12.3009C76.5305 12.2383 76.4709 12.1973 76.4079 12.2066V12.2066Z" fill="#89023E"/>
<path d="M73.1341 35.9027C66.9399 36.1304 66.4128 26.9454 72.9327 26.4854C79.4235 26.6772 79.4235 35.5819 73.1341 35.9027Z" fill="#89023E"/>
<path d="M46.0265 62.3939L45.6528 62.409C34.7806 62.5876 25.4904 53.2242 26.658 42.6531C27.6017 34.1108 35.292 26.6496 44.2683 26.5544C45.0204 26.5468 45.801 26.515 46.5487 26.5808C55.1292 27.3379 62.776 34.379 63.4408 42.8695C64.2438 53.1282 56.5117 61.647 46.0265 62.3939ZM43.78 34.4804C37.9678 35.0708 34.1826 40.3353 34.8222 45.8373C35.4415 51.1633 41.026 55.1632 46.4016 54.4989C55.7317 53.1543 58.7469 41.7945 50.9265 36.3052C48.8234 34.8288 46.3276 34.3463 43.78 34.4804Z" fill="#89023E"/>
</svg>
