<svg width="135" height="134" viewBox="0 0 135 134" fill="none" xmlns="http://www.w3.org/2000/svg">
<rect width="135" height="135" rx="28" fill="#FFF5F5"/>
<path d="M47.9713 17.0154C52.2441 16.7278 52.8832 20.5205 53.4269 24.2234L57.0282 48.9996C57.0978 49.59 57.2093 50.2625 57.1326 50.8561L57.0897 51.1525C56.9708 51.7443 56.3871 52.3085 55.9172 52.5946C54.6072 53.3915 52.5274 52.0219 51.2936 51.5283L31.1276 44.5356L19.6944 40.4888C18.0682 40.0074 16.143 39.6721 15.1261 38.0392L15.0802 37.9643C14.4958 37.0419 14.1755 35.8028 14.3329 34.6855L14.353 34.5523C14.7758 31.6107 16.9875 31.0176 19.1419 30.0461L44.9633 18.1449C45.919 17.6817 46.9291 17.1715 47.9713 17.0154Z" fill="url(#paint0_linear_1479_945)"/>
<path d="M67.8041 17.6058C68.8956 17.4836 70.0817 17.6855 71.1629 17.8495L75.1095 18.5576C97.2912 23.3795 113.17 46.158 111.768 70.7184C110.245 97.3804 90.8179 117.024 66.3799 117C63.5882 116.998 61.4217 116.863 58.6682 116.385C50.5521 114.975 42.348 110.719 36.0264 104.966C31.056 100.443 27.1654 94.5843 24.4021 88.2304C19.5676 75.6778 18.6949 63.4817 23.1046 50.7737C23.4614 49.7451 25.4495 44.2492 26.456 44.1244C27.2425 44.027 28.1617 44.4702 28.9085 44.696L41.9394 48.9564C44.6408 49.8311 47.3578 50.7153 49.9894 51.82C53.3884 53.2466 54.6287 54.1817 56.9023 57.2066L59.8161 61.0425C61.8909 63.6431 64.1906 65.937 66.6139 68.1374L66.774 68.2796C77.2674 77.0959 86.4183 75.7967 98.5351 74.0416L98.7847 68.0576C98.7871 64.223 98.3525 61.0298 97.4464 57.2804C94.1865 43.7893 83.0108 33.0765 70.2805 31.4212C66.6371 30.9474 62.5318 31.0823 61.4272 26.2711L61.3946 26.1255C60.4861 22.1596 64.5729 18.2428 67.8041 17.6058ZM42.0872 72.2751C40.0363 72.6142 39.5353 74.3896 39.9097 76.358C41.1424 82.8362 46.547 90.0106 51.5671 93.6488C62.2958 101.424 76.7987 100.092 86.5111 90.9103C87.2928 90.1306 88.324 89.1569 88.3805 87.9164C88.4508 86.369 87.9253 85.2003 86.5308 84.7063L86.4148 84.664C84.7481 84.086 83.6146 85.7611 82.5275 86.8327C76.9436 92.3357 68.0851 93.9004 60.974 91.8293C54.2966 89.8848 47.9665 84.0225 45.673 76.8016C44.9885 74.6468 44.8285 72.056 42.0872 72.2751Z" fill="url(#paint1_linear_1479_945)"/>
<defs>
<linearGradient id="paint0_linear_1479_945" x1="35.7257" y1="17" x2="35.7257" y2="52.8384" gradientUnits="userSpaceOnUse">
<stop stop-color="#FF005C"/>
<stop offset="1" stop-color="#F3C4C4"/>
</linearGradient>
<linearGradient id="paint1_linear_1479_945" x1="66.0465" y1="17.5684" x2="66.0465" y2="117" gradientUnits="userSpaceOnUse">
<stop stop-color="#FF005C"/>
<stop offset="1" stop-color="#F3C4C4"/>
</linearGradient>
</defs>
</svg>
