<svg width="327" height="41" viewBox="0 0 327 41" fill="none" xmlns="http://www.w3.org/2000/svg">
<path d="M0.92 40L14.424 1.184H17.016L30.456 40H27.96L24.056 28.32H7.48L3.352 40H0.92ZM8.088 26.24H23.288L15.672 4.256L8.088 26.24ZM38.2615 1.184H40.6295V26.656C40.6295 30.7733 41.6642 33.76 43.7335 35.616C45.8028 37.472 48.5548 38.4 51.9895 38.4C55.3602 38.4 58.0695 37.472 60.1175 35.616C62.1868 33.76 63.2215 30.7733 63.2215 26.656V1.184H65.5895V26.656C65.5895 29.8987 65.0028 32.5547 63.8295 34.624C62.6775 36.672 61.0775 38.1867 59.0295 39.168C57.0028 40.1493 54.6562 40.64 51.9895 40.64C49.3442 40.64 46.9868 40.1493 44.9175 39.168C42.8482 38.1867 41.2162 36.672 40.0215 34.624C38.8482 32.5547 38.2615 29.8987 38.2615 26.656V1.184ZM92.976 1.184H103.056C106.939 1.184 110.277 1.984 113.072 3.584C115.867 5.184 118.011 7.43466 119.504 10.336C121.019 13.2373 121.776 16.64 121.776 20.544C121.776 24.4053 121.019 27.7973 119.504 30.72C118.011 33.6427 115.867 35.9253 113.072 37.568C110.277 39.1893 106.939 40 103.056 40H92.976V1.184ZM95.344 3.104V38.144H103.056C106.448 38.144 109.36 37.376 111.792 35.84C114.224 34.304 116.091 32.2133 117.392 29.568C118.693 26.9013 119.344 23.8933 119.344 20.544C119.344 17.1947 118.693 14.208 117.392 11.584C116.091 8.96 114.224 6.89067 111.792 5.376C109.36 3.86133 106.448 3.104 103.056 3.104H95.344ZM133.412 40V1.184H156.228V3.168H135.78V19.296H155.076V21.312H135.78V37.952H156.228V40H133.412ZM179.083 40.64C176.608 40.64 174.336 40.1707 172.267 39.232C170.219 38.2933 168.576 36.96 167.339 35.232C166.123 33.4827 165.526 31.392 165.547 28.96H167.787C167.787 31.1147 168.31 32.896 169.355 34.304C170.4 35.6907 171.776 36.7253 173.483 37.408C175.19 38.0693 177.035 38.4 179.019 38.4C181.387 38.4 183.392 37.9947 185.035 37.184C186.699 36.352 187.958 35.296 188.811 34.016C189.686 32.7147 190.123 31.36 190.123 29.952C190.123 27.9253 189.494 26.2507 188.235 24.928C186.998 23.584 185.259 22.5813 183.019 21.92L177.003 20.224C173.547 19.0933 170.966 17.824 169.259 16.416C167.552 15.008 166.699 13.0027 166.699 10.4C166.699 7.54133 167.755 5.19467 169.867 3.36C172 1.52533 175.094 0.607998 179.147 0.607998C182.688 0.607998 185.483 1.41866 187.531 3.04C189.6 4.64 190.806 6.67733 191.147 9.152H188.779C188.438 7.06133 187.446 5.48266 185.803 4.416C184.16 3.328 181.942 2.784 179.147 2.784C175.968 2.784 173.526 3.52 171.819 4.992C170.112 6.464 169.259 8.33066 169.259 10.592C169.259 12.384 169.792 13.8133 170.859 14.88C171.947 15.9253 173.664 16.8213 176.011 17.568L183.531 19.808C186.219 20.5333 188.416 21.7067 190.123 23.328C191.83 24.9493 192.683 27.1573 192.683 29.952C192.683 31.7227 192.171 33.4293 191.147 35.072C190.123 36.6933 188.598 38.0267 186.571 39.072C184.566 40.1173 182.07 40.64 179.083 40.64ZM204.351 40V1.184H206.719V40H204.351ZM233.784 40.64C230.776 40.64 228.013 39.872 225.496 38.336C222.978 36.8 220.962 34.592 219.448 31.712C217.954 28.8107 217.208 25.3333 217.208 21.28C217.208 17.7173 217.709 14.6347 218.712 12.032C219.736 9.42933 221.101 7.28533 222.808 5.6C224.536 3.91467 226.477 2.66667 228.632 1.856C230.808 1.024 233.037 0.607998 235.32 0.607998C237.688 0.607998 239.906 1.056 241.976 1.952C244.066 2.848 246.072 4.256 247.992 6.176L246.36 7.712C244.546 5.94133 242.712 4.68267 240.856 3.936C239.021 3.168 237.176 2.784 235.32 2.784C232.546 2.784 229.965 3.53066 227.576 5.024C225.186 6.496 223.266 8.61867 221.816 11.392C220.365 14.144 219.64 17.44 219.64 21.28C219.64 24.5227 220.194 27.4347 221.304 30.016C222.413 32.5973 224.024 34.6453 226.136 36.16C228.248 37.6533 230.786 38.4 233.752 38.4C235.864 38.4 237.752 37.9093 239.416 36.928C241.101 35.9253 242.424 34.3573 243.384 32.224C244.365 30.0907 244.856 27.328 244.856 23.936H246.264C246.264 27.3067 245.858 30.2507 245.048 32.768C244.237 35.264 242.914 37.2053 241.08 38.592C239.266 39.9573 236.834 40.64 233.784 40.64ZM245.56 40L244.856 30.208V23.936L233.944 23.488V21.536H247.288V40H245.56ZM259.726 1.184H263.342L285.326 37.824H285.006V1.184H287.374V40H283.982L261.806 3.008H262.094V40H259.726V1.184ZM312.583 40.64C310.108 40.64 307.836 40.1707 305.767 39.232C303.719 38.2933 302.076 36.96 300.839 35.232C299.623 33.4827 299.026 31.392 299.047 28.96H301.287C301.287 31.1147 301.81 32.896 302.855 34.304C303.9 35.6907 305.276 36.7253 306.983 37.408C308.69 38.0693 310.535 38.4 312.519 38.4C314.887 38.4 316.892 37.9947 318.535 37.184C320.199 36.352 321.458 35.296 322.311 34.016C323.186 32.7147 323.623 31.36 323.623 29.952C323.623 27.9253 322.994 26.2507 321.735 24.928C320.498 23.584 318.759 22.5813 316.519 21.92L310.503 20.224C307.047 19.0933 304.466 17.824 302.759 16.416C301.052 15.008 300.199 13.0027 300.199 10.4C300.199 7.54133 301.255 5.19467 303.367 3.36C305.5 1.52533 308.594 0.607998 312.647 0.607998C316.188 0.607998 318.983 1.41866 321.031 3.04C323.1 4.64 324.306 6.67733 324.647 9.152H322.279C321.938 7.06133 320.946 5.48266 319.303 4.416C317.66 3.328 315.442 2.784 312.647 2.784C309.468 2.784 307.026 3.52 305.319 4.992C303.612 6.464 302.759 8.33066 302.759 10.592C302.759 12.384 303.292 13.8133 304.359 14.88C305.447 15.9253 307.164 16.8213 309.511 17.568L317.031 19.808C319.719 20.5333 321.916 21.7067 323.623 23.328C325.33 24.9493 326.183 27.1573 326.183 29.952C326.183 31.7227 325.671 33.4293 324.647 35.072C323.623 36.6933 322.098 38.0267 320.071 39.072C318.066 40.1173 315.57 40.64 312.583 40.64Z" fill="black"/>
</svg>
